<svg xmlns="http://www.w3.org/2000/svg" x="0px" y="0px"
width="100" height="100"
viewBox="0 0 224 224"
style=" fill:#000000;"><g fill="none" fill-rule="nonzero" stroke="none" stroke-width="1" stroke-linecap="butt" stroke-linejoin="miter" stroke-miterlimit="10" stroke-dasharray="" stroke-dashoffset="0" font-family="none" font-weight="none" font-size="none" text-anchor="none" style="mix-blend-mode: normal"><path d="M0,224v-224h224v224z" fill="none"></path><g fill="#00a743"><path d="M107.50277,153.31077c-11.26031,0 -21.59877,-3.92862 -28.80123,-8.22769l-4.97969,17.584c6.64246,4.48862 18.67815,7.85723 30.30892,8.22769v16.48123h14.73231v-17.60985c20.30646,-3.36862 31.19631,-17.39446 31.19631,-33.29846c0,-16.64492 -9.23569,-26.75077 -29.904,-34.608c-15.68862,-6.35815 -22.33969,-10.66585 -22.33969,-18.33354c0,-6.35815 4.61785,-13.09538 17.54092,-13.09538c12.55262,0 20.66831,4.30769 25.10523,6.35815l4.98831,-17.20492c-5.91015,-2.99815 -13.84492,-5.79815 -25.47569,-6.17723v-16.79138h-15.13723v17.73908c-18.64369,3.36862 -29.72308,15.71446 -29.72308,31.808c0,17.39446 12.55262,26.37169 31.93723,33.47938c13.664,5.04862 20.12554,10.47631 20.12554,18.89354c-0.00862,8.98585 -7.952,14.77538 -19.57415,14.77538z"></path></g></g></svg>
